<svg id="Ebene_1" data-name="Ebene 1" xmlns="http://www.w3.org/2000/svg" viewBox="0 0 1099.87 180.9"><defs><style>.cls-1{fill:#1d1d1b;}.cls-2{font-size:150px;font-family:ForteMT, Forte;}.cls-3{letter-spacing:0.02em;}.cls-4{letter-spacing:0em;}</style></defs><title>LOGO_LIGHT</title><path class="cls-1" d="M115.9,0C74.54.4,34.29,15.65,26.75,44.59h185C199.75,14.09,157.27-.38,115.9,0ZM222,47.18H16.5v11.6H222Zm6,37.59c-1.69-1.6-3.52-3.24-5.49-2.84-1.39.29-1.94,1.42-2.62,2.82a10.42,10.42,0,0,1-3.38,4.43,12.38,12.38,0,0,1-7,2.11,14,14,0,0,1-7.22-1.86,11.92,11.92,0,0,1-4.34-4.89c-.88-1.59-1.57-2.87-3.16-3.11-1.81-.26-3,1.1-4.51,2.91a19.35,19.35,0,0,1-6.49,5.59,18.73,18.73,0,0,1-10.6,1.5,25.84,25.84,0,0,1-9.65-3.25A29,29,0,0,1,155.68,81c-1.8-2.25-2.86-3.91-3.43-3.6s.18,1.9.74,3.9,1,4.42-.24,6.35a8,8,0,0,1-5.2,3.19,10.07,10.07,0,0,1-6.55-.69,8.62,8.62,0,0,1-3.09-2.94c-.71-1-1.31-1.76-2.41-1.81s-2,.86-2.8,2a11,11,0,0,1-3.45,3.48c-3,1.72-7,1-10.3-.22a33.14,33.14,0,0,1-6.45-3.28,31.42,31.42,0,0,1-7.16-6.84c-1.58-1.93-2.66-3.21-4.09-2.91s-1.79,1.82-2.36,3.72a12.2,12.2,0,0,1-3.39,6,14,14,0,0,1-9.26,3.1,18,18,0,0,1-10-2.85A15.41,15.41,0,0,1,70.7,80.3C69.68,77.91,69,76,67,75.68c-2.55-.4-4.34,2.37-6.81,5.6s-5.64,6.93-10.94,8.4a20,20,0,0,1-6.61.68c-2.3-.18-4.44-.87-5.64-2.43a9.16,9.16,0,0,1-1.39-3.87,6.48,6.48,0,0,0-2.11-3.88,6.29,6.29,0,0,0-2-1.13,10.38,10.38,0,0,0-1.7-.42c-4.33-.77-8.7,2.15-12.58,5.17s-7.27,6.14-9.65,5.76c1.54,1.42,3.79,2.38,7,3a73,73,0,0,0,12.84.85h185.5c6-.07,10.38-.49,13.53-1.43s5.07-2.41,6.22-4.56C231.23,88,229.68,86.38,228,84.77Zm2.28-17.51C227.22,65,221.91,64.1,212.88,64H27.38c-9.81,0-15.56.81-18.86,3S4.38,73,4.38,78.7c0,1.29,0,2.47.15,3.56a17.92,17.92,0,0,0,.51,3c.15-4,5.35-8.43,11.69-11.08s13.81-3.53,18.52-.48c2.89,1.88,3.91,4.69,4.76,7.2s1.53,4.69,3.74,5.3c3.56,1,7-3.22,10.8-7.6s8-8.94,13.2-8.65c4.33.25,7.19,3.81,9.91,7.21s5.31,6.65,9.09,6.29c3.35-.31,5.16-3.2,7-6.14s3.65-5.9,7-6.36c4.59-.62,8.58,3.89,12.48,8.33s7.74,8.82,12,7.92c2.57-.53,4.1-2.72,5.57-4.74s2.88-3.87,5.18-3.76S140.12,81,141.58,83s2.65,4,3.92,3.69c1.51-.34,1.6-3.49,1.83-6.82s.6-6.85,2.67-7.93c3-1.55,7.48,3,12.61,7.6s10.88,9.25,16.39,7.9c3.85-.93,6.05-4.43,8.06-7.66s3.84-6.21,6.94-6.09c2.82.11,4.53,2.68,6.34,5.29s3.71,5.23,6.91,5.46c2.76.2,4.5-1.52,6.54-3.4s4.35-3.91,8.28-4.32a15.87,15.87,0,0,1,7.21,1,8.07,8.07,0,0,1,4.74,4c0-.47.06-1,.08-1.47s0-1,0-1.58C234.13,73.14,233.33,69.52,230.27,67.26ZM223,93.52a10.11,10.11,0,0,0-2.22-.1c-4.39.38-6.71,2.52-8.9,4.77s-4.25,4.61-8.1,5.44c-4.16.89-7.4-.92-11.05-3s-7.69-4.37-13.45-4.47c-5.14-.08-8.4,3-11.65,6a24.65,24.65,0,0,1-6.51,4.83c-3.18,0-6.36,0-9.5,0-3.6-1.39-6.71-4.07-9.32-6.6-3.62-3.51-6.29-6.72-8-5.71-1.13.66-2.29.59-3.55.86a6.8,6.8,0,0,0-4.2,3,12.27,12.27,0,0,1-8.2,4.58A22.22,22.22,0,0,1,107,101.5a67,67,0,0,1-9.33-4.43c-1.68-.91-2.91-1.39-6.67-1.9-4.84-.65-7.31.68-10.22,2.36A29,29,0,0,1,68,102c-5.22.6-8.38-1.57-11.91-3.89S48.68,93.35,42,93.4s-11.18,3.46-15,6.41-7.12,5.43-11.2,3.61a30.89,30.89,0,0,1-7.26-5.13c-2-1.64-3.64-2.78-5.49-2.12A4.47,4.47,0,0,0,.88,97.88,4.8,4.8,0,0,0,0,100.42c0,2.22,1.89,4.32,4.59,6a30.57,30.57,0,0,0,9.16,3.72c2.3.52,5-.77,8.22-2.36s6.93-3.49,11.28-4.18c5.78-.92,7.93-1.25,9.28-1.37s1.9,0,4.47,0a21.81,21.81,0,0,1,11.82,3.39l.82.46c-17.36.5-32,2.11-32.89,6.08,0,.11-.2.93-.4,2.26s-.43,3.15-.56,5.25c-.1,1.69-.12,3.19-.1,4.42s.07,2.18.11,2.77c0,.23.06.89.16,1.86s.26,2.24.5,3.7c.17,1.07.42,2.46.8,4.1s.87,3.53,1.54,5.58c.25.8.63,1.93,1.16,3.31s1.19,3,2,4.76,1.53,3.09,2.2,4.29,1.26,2.17,1.72,2.92c1.05,1.72,2.05,3.21,2.88,4.4s1.49,2.06,1.89,2.58c.89,1.17,1.79,2.27,2.68,3.31s1.78,2,2.65,2.95l72.5.05,72.5.05a39.18,39.18,0,0,0,3.3-2.91,15.61,15.61,0,0,0,2.76-3.4,24.47,24.47,0,0,1,1.41-2.17,23.31,23.31,0,0,0,1.78-3.08c.89-1.86,1.69-3.5,2.35-4.89s1.2-2.56,1.59-3.48c.72-1.72,1.42-3.26,2.05-4.66s1.2-2.67,1.64-3.84a48.52,48.52,0,0,0,1.63-5.28c.39-1.53.71-3,1.24-4.72a39.33,39.33,0,0,0,1.19-5.26c.23-1.44.33-2.5.44-3a24.93,24.93,0,0,0,.54-4.3c.06-1.19,0-2.06.08-2.33a6.64,6.64,0,0,0-.45-3.61c-.37-.9-.8-1.47-.8-1.64,0-.79-.8-1.46-2.24-2a44,44,0,0,0,7.74-5.15c3.05-2.27,5.75-3.88,7.44-5.35S227,96.87,226,95.17A4.23,4.23,0,0,0,223,93.52ZM75.28,105.9c1.26-.67,2.37-1.4,3.43-2.07,2.66-1.69,5-3,8.54-2.41a18.79,18.79,0,0,1,4.8,1.57c1.49.7,3,1.58,5,2.59.47.24.94.48,1.4.7C91.48,106.08,83.43,105.92,75.28,105.9Zm54.63,1.19a15.66,15.66,0,0,0,3.84-3.46c1.58-2,4.42-.79,7.17,1.22.91.67,1.8,1.42,2.64,2.17C138.72,107.05,134.11,107.08,129.91,107.09Zm45,0h-1.16c1.83-1.68,3.56-3,6.24-2.63a18.28,18.28,0,0,1,7,2.64l.62.36C183.66,107.25,179.37,107.13,174.92,107.06Z" transform="translate(0)"/><text class="cls-2" transform="translate(243.59 148.82)">BURGE<tspan class="cls-3" x="471.9" y="0">R</tspan><tspan class="cls-4" x="568.65" y="0">APP</tspan></text></svg>